<?xml version="1.0" encoding="utf-8"?>
<!-- Generator: Adobe Illustrator 16.0.0, SVG Export Plug-In . SVG Version: 6.00 Build 0)  -->
<!DOCTYPE svg PUBLIC "-//W3C//DTD SVG 1.1//EN" "http://www.w3.org/Graphics/SVG/1.1/DTD/svg11.dtd">
<svg version="1.1" id="Ebene_1" xmlns="http://www.w3.org/2000/svg" xmlns:xlink="http://www.w3.org/1999/xlink" x="0px" y="0px"
	 width="602px" height="180px" viewBox="119.445 194.14 602 180" enable-background="new 119.445 194.14 602 180"
	 xml:space="preserve">
<g>
	<path d="M240.375,310.92h-1.47l-20.792-39.904v34.164l6.441,4.899v0.421h-15.683v-0.421l5.741-4.899v-41.655l-5.531-4.689v-0.84
		h16.172l16.803,31.223l2.1,4.34l15.682-35.634l0.07,0.07h17.572v0.42l-5.041,4.899v41.865l5.041,4.899v0.421h-22.683v-0.421
		l5.041-4.899v-38.924l-1.89,4.971L240.375,310.92z"/>
	<path d="M281.112,293.558c0-9.94,6.791-18.762,18.692-18.762c9.03,0,14.771,5.041,16.731,15.261l-10.501,2.17l-11.761,2.45
		c1.33,5.88,5.041,10.152,12.951,10.152c2.8,0,5.74-0.701,8.4-2.031v1.051c-4.41,4.2-9.521,7.351-16.802,7.351
		C288.463,311.199,281.112,303.499,281.112,293.558z M293.923,292.858l10.012-3.851c-0.42-7.141-1.75-11.971-4.621-11.971
		c-4.062,0-5.67,5.319-5.67,11.48C293.644,289.988,293.713,291.458,293.923,292.858z"/>
	<path d="M324.722,264.225l-5.392-5.811v-0.42h17.643v47.534l5.041,4.551v0.42h-22.332v-0.42l5.041-4.551L324.722,264.225
		L324.722,264.225z"/>
	<path d="M346.212,310.499v-0.42l5.04-4.551v-24.502l-5.04-5.109v-0.42h17.292v30.032l5.041,4.551v0.421h-22.333V310.499z
		 M350.482,262.615c0-3.99,3.149-6.65,6.931-6.65c3.78,0,6.932,2.66,6.932,6.65c0,4.2-3.15,6.65-6.932,6.65
		C353.632,269.266,350.482,266.815,350.482,262.615z"/>
	<path d="M394.724,310.499h-21.633v-0.42l5.041-4.551v-41.304l-5.041-5.811v-0.42h17.292v35.283l13.163-12.461l-2.73-4.899v-0.42
		h15.612v0.42l-7.981,4.55l-7.351,6.651l12.811,18.481l5.461,4.479v0.42h-20.583v-0.42l1.891-3.08l-7.771-12.461l-2.521,2.239v8.751
		l4.342,4.551V310.499z"/>
	<path d="M419.502,293.558c0-9.94,6.79-18.762,18.69-18.762c9.031,0,14.771,5.041,16.732,15.261l-10.502,2.17l-11.762,2.45
		c1.33,5.88,5.04,10.152,12.951,10.152c2.801,0,5.74-0.701,8.401-2.031v1.051c-4.411,4.2-9.521,7.351-16.802,7.351
		C426.852,311.199,419.502,303.499,419.502,293.558z M432.312,292.858l10.011-3.851c-0.42-7.141-1.75-11.971-4.621-11.971
		c-4.06,0-5.67,5.319-5.67,11.48C432.032,289.988,432.102,291.458,432.312,292.858z"/>
	<path d="M475.641,310.079l5.04-4.899v-41.865l-5.04-4.899v-0.42h21.282c15.82,0,22.262,4.271,22.262,12.881
		c0,6.021-4.271,10.081-10.921,12.251c8.611,1.75,13.512,5.741,13.512,12.461c0,10.431-8.751,14.911-25.413,14.911h-20.722V310.079z
		 M496.013,282.007c6.16,0,10.081-2.521,10.081-10.641c0-7.142-3.291-10.502-9.381-10.502h-3.432v21.143H496.013z M493.282,284.877
		v22.752h4.062c7.841,0,11.341-3.78,11.341-11.481c0-7-3.5-11.271-11.341-11.271H493.282L493.282,284.877z"/>
	<path d="M525.061,310.499v-0.42l5.04-4.551v-24.502l-5.04-5.109v-0.42h17.292v30.032l5.04,4.551v0.421h-22.332V310.499z
		 M529.331,262.615c0-3.99,3.15-6.65,6.932-6.65s6.931,2.66,6.931,6.65c0,4.2-3.149,6.65-6.931,6.65
		S529.331,266.815,529.331,262.615z"/>
	<path d="M556.28,264.225l-5.391-5.811v-0.42h17.642v47.534l5.041,4.551v0.42h-22.333v-0.42l5.041-4.551V264.225L556.28,264.225z"/>
	<path d="M577.77,310.499v-0.42l5.04-4.551v-24.502l-5.04-5.109v-0.42h17.292v30.032l5.04,4.551v0.421H577.77V310.499z
		 M582.04,262.615c0-3.99,3.15-6.65,6.932-6.65s6.931,2.66,6.931,6.65c0,4.2-3.149,6.65-6.931,6.65S582.04,266.815,582.04,262.615z"
		/>
	<path d="M628.031,310.499H604.3v-0.42l5.04-4.551v-24.502l-5.04-5.109v-0.42h16.871v7.28h0.141c2.45-4.69,7.211-7.7,13.091-7.98
		v12.881h-0.279l-9.94-4.971c-1.47,1.05-2.59,2.8-2.59,5.671v17.15l6.439,4.551L628.031,310.499L628.031,310.499z"/>
</g>
</svg>
